# 3ds Max Wavefront OBJ Exporter v0.97b - (c)2007 guruware
# File Created: 22.02.2012 04:20:36

mtllib cheese(quads).mtl

#
# object Cylinder01
#

v  -48.0689 12.5085 -49.1283
v  -33.3423 12.5085 -49.1283
v  -33.3423 -12.5085 -49.1283
v  -48.0689 -12.5085 -49.1283
v  -18.7801 12.5085 -46.9335
v  -18.7801 -12.5085 -46.9335
v  -4.7077 12.5085 -42.5927
v  -4.7077 -12.5085 -42.5927
v  8.5605 12.5085 -36.2031
v  8.5605 -12.5085 -36.2031
v  20.7282 12.5085 -27.9073
v  20.7282 -12.5085 -27.9073
v  31.5236 12.5085 -17.8907
v  31.5236 -12.5085 -17.8907
v  40.7056 12.5085 -6.3770
v  40.7056 -12.5085 -6.3770
v  48.0689 12.5085 6.3766
v  48.0689 -12.5085 6.3766
v  -34.4674 27.5229 -34.1139
v  -46.9437 27.5229 -34.1139
v  -40.7055 27.5229 49.1283
v  -46.9437 -27.5229 -34.1139
v  -34.4674 -27.5229 -34.1139
v  -40.7055 -27.5229 49.1283
v  -22.1305 27.5229 -32.2545
v  -22.1305 -27.5229 -32.2545
v  -10.2085 27.5229 -28.5770
v  -10.2085 -27.5229 -28.5770
v  1.0323 27.5229 -23.1638
v  1.0323 -27.5229 -23.1638
v  11.3407 27.5229 -16.1357
v  11.3407 -27.5229 -16.1357
v  20.4865 27.5229 -7.6497
v  20.4865 -27.5229 -7.6497
v  28.2653 27.5229 2.1047
v  28.2653 -27.5229 2.1047
v  34.5035 27.5229 12.9094
v  34.5035 -27.5229 12.9094
v  -33.3735 17.0963 -48.7113
v  -48.0376 17.0963 -48.7112
v  -48.0376 -17.0963 -48.7112
v  -33.3735 -17.0963 -48.7113
v  -18.8732 17.0963 -46.5257
v  -18.8732 -17.0963 -46.5257
v  -4.8605 17.0963 -42.2034
v  -4.8605 -17.0963 -42.2034
v  8.3514 17.0963 -35.8409
v  8.3514 -17.0963 -35.8409
v  20.4675 17.0963 -27.5804
v  20.4675 -17.0963 -27.5804
v  31.2170 17.0963 -17.6063
v  31.2170 -17.0963 -17.6063
v  40.3600 17.0963 -6.1414
v  40.3600 -17.0963 -6.1414
v  47.6921 17.0963 6.5581
v  47.6921 -17.0963 6.5581
v  -33.4673 20.8499 -47.4601
v  -47.9439 20.8499 -47.4600
v  -33.6236 23.7693 -45.3747
v  -47.7876 23.7693 -45.3747
v  -33.8423 25.8547 -42.4553
v  -47.5688 25.8547 -42.4552
v  -34.1236 27.1059 -38.7017
v  -47.2875 27.1059 -38.7016
v  -47.9439 -20.8499 -47.4600
v  -33.4673 -20.8499 -47.4601
v  -47.7876 -23.7693 -45.3747
v  -33.6236 -23.7693 -45.3747
v  -47.5688 -25.8547 -42.4552
v  -33.8423 -25.8547 -42.4553
v  -47.2875 -27.1059 -38.7016
v  -34.1236 -27.1059 -38.7017
v  -19.1524 20.8499 -45.3025
v  -19.6177 23.7693 -43.2637
v  -20.2692 25.8547 -40.4095
v  -21.1068 27.1059 -36.7397
v  -19.1524 -20.8499 -45.3025
v  -19.6177 -23.7693 -43.2637
v  -20.2692 -25.8547 -40.4095
v  -21.1068 -27.1059 -36.7397
v  -5.3189 20.8499 -41.0354
v  -6.0829 23.7693 -39.0888
v  -7.1525 25.8547 -36.3635
v  -8.5277 27.1059 -32.8596
v  -5.3189 -20.8499 -41.0354
v  -6.0829 -23.7693 -39.0888
v  -7.1525 -25.8547 -36.3635
v  -8.5277 -27.1059 -32.8596
v  7.7240 20.8499 -34.7543
v  6.6784 23.7693 -32.9433
v  5.2146 25.8547 -30.4079
v  3.3326 27.1059 -27.1480
v  7.7240 -20.8499 -34.7543
v  6.6784 -23.7693 -32.9433
v  5.2146 -25.8547 -30.4079
v  3.3326 -27.1059 -27.1480
v  19.6852 20.8499 -26.5994
v  18.3813 23.7693 -24.9644
v  16.5560 25.8547 -22.6755
v  14.2091 27.1059 -19.7326
v  19.6852 -20.8499 -26.5994
v  18.3813 -23.7693 -24.9644
v  16.5560 -25.8547 -22.6755
v  14.2091 -27.1059 -19.7326
v  30.2973 20.8499 -16.7528
v  28.7643 23.7693 -15.3305
v  26.6182 25.8547 -13.3391
v  23.8589 27.1059 -10.7789
v  30.2973 -20.8499 -16.7528
v  28.7643 -23.7693 -15.3305
v  26.6182 -25.8547 -13.3391
v  23.8589 -27.1059 -10.7789
v  39.3233 20.8499 -5.4346
v  37.5955 23.7693 -4.2566
v  35.1766 25.8547 -2.6074
v  32.0665 27.1059 -0.4870
v  39.3233 -20.8499 -5.4346
v  37.5955 -23.7693 -4.2566
v  35.1766 -25.8547 -2.6074
v  32.0665 -27.1059 -0.4870
v  46.5616 20.8499 7.1025
v  44.6775 23.7693 8.0098
v  42.0398 25.8547 9.2801
v  38.6485 27.1059 10.9133
v  46.5616 -20.8499 7.1025
v  44.6775 -23.7693 8.0098
v  42.0398 -25.8547 9.2801
v  38.6485 -27.1059 10.9133
# 128 vertices

vn -0.0000 0.0452 -0.9990
vn 0.0747 0.0453 -0.9962
vn 0.0747 -0.0453 -0.9962
vn -0.0000 -0.0452 -0.9990
vn 0.2223 0.0453 -0.9739
vn 0.2223 -0.0453 -0.9739
vn 0.3650 0.0453 -0.9299
vn 0.3650 -0.0453 -0.9299
vn 0.4995 0.0453 -0.8651
vn 0.4995 -0.0453 -0.8651
vn 0.6228 0.0453 -0.7810
vn 0.6228 -0.0453 -0.7810
vn 0.7323 0.0453 -0.6795
vn 0.7323 -0.0453 -0.6795
vn 0.8254 0.0453 -0.5627
vn 0.8254 -0.0453 -0.5627
vn 0.8651 0.0452 -0.4995
vn 0.8651 -0.0452 -0.4995
vn 0.0035 0.9989 -0.0472
vn -0.0000 0.9989 -0.0475
vn 0.0000 1.0000 -0.0000
vn -0.0000 -0.9989 -0.0475
vn 0.0035 -0.9989 -0.0472
vn 0.0000 -1.0000 -0.0000
vn 0.0105 0.9989 -0.0461
vn 0.0105 -0.9989 -0.0461
vn 0.0173 0.9989 -0.0441
vn 0.0173 -0.9989 -0.0441
vn 0.0237 0.9989 -0.0410
vn 0.0237 -0.9989 -0.0410
vn 0.0295 0.9989 -0.0370
vn 0.0295 -0.9989 -0.0370
vn 0.0347 0.9989 -0.0322
vn 0.0347 -0.9989 -0.0322
vn 0.0391 0.9989 -0.0267
vn 0.0391 -0.9989 -0.0267
vn 0.0411 0.9989 -0.0237
vn 0.0411 -0.9989 -0.0237
vn 0.0732 0.2042 -0.9762
vn -0.0000 0.2036 -0.9790
vn -0.0000 -0.2036 -0.9790
vn 0.0732 -0.2042 -0.9762
vn 0.2178 0.2042 -0.9544
vn 0.2178 -0.2042 -0.9544
vn 0.3576 0.2042 -0.9113
vn 0.3576 -0.2042 -0.9113
vn 0.4895 0.2042 -0.8478
vn 0.4895 -0.2042 -0.8478
vn 0.6104 0.2042 -0.7654
vn 0.6104 -0.2042 -0.7654
vn 0.7176 0.2042 -0.6658
vn 0.7176 -0.2042 -0.6658
vn 0.8088 0.2042 -0.5515
vn 0.8088 -0.2042 -0.5515
vn 0.8479 0.2036 -0.4895
vn 0.8479 -0.2036 -0.4895
vn 0.0667 0.4519 -0.8896
vn -0.0000 0.4509 -0.8926
vn 0.0531 0.7042 -0.7081
vn -0.0000 0.7032 -0.7110
vn 0.0343 0.8887 -0.4571
vn -0.0000 0.8882 -0.4594
vn 0.0157 0.9778 -0.2089
vn -0.0000 0.9777 -0.2100
vn -0.0000 -0.4509 -0.8926
vn 0.0667 -0.4519 -0.8896
vn -0.0000 -0.7032 -0.7110
vn 0.0531 -0.7042 -0.7081
vn -0.0000 -0.8882 -0.4594
vn 0.0343 -0.8887 -0.4571
vn -0.0000 -0.9777 -0.2100
vn 0.0157 -0.9778 -0.2089
vn 0.1985 0.4519 -0.8697
vn 0.1580 0.7042 -0.6922
vn 0.1020 0.8887 -0.4469
vn 0.0466 0.9778 -0.2042
vn 0.1985 -0.4519 -0.8697
vn 0.1580 -0.7042 -0.6922
vn 0.1020 -0.8887 -0.4469
vn 0.0466 -0.9778 -0.2042
vn 0.3259 0.4519 -0.8304
vn 0.2594 0.7042 -0.6610
vn 0.1675 0.8887 -0.4267
vn 0.0765 0.9778 -0.1950
vn 0.3259 -0.4519 -0.8304
vn 0.2594 -0.7042 -0.6610
vn 0.1675 -0.8887 -0.4267
vn 0.0765 -0.9778 -0.1950
vn 0.4460 0.4519 -0.7726
vn 0.3550 0.7042 -0.6149
vn 0.2292 0.8887 -0.3970
vn 0.1047 0.9778 -0.1814
vn 0.4460 -0.4519 -0.7726
vn 0.3550 -0.7042 -0.6149
vn 0.2292 -0.8887 -0.3970
vn 0.1047 -0.9778 -0.1814
vn 0.5562 0.4519 -0.6975
vn 0.4427 0.7042 -0.5551
vn 0.2858 0.8887 -0.3584
vn 0.1306 0.9778 -0.1638
vn 0.5562 -0.4519 -0.6975
vn 0.4427 -0.7042 -0.5551
vn 0.2858 -0.8887 -0.3584
vn 0.1306 -0.9778 -0.1638
vn 0.6539 0.4519 -0.6068
vn 0.5205 0.7042 -0.4830
vn 0.3360 0.8887 -0.3118
vn 0.1535 0.9778 -0.1425
vn 0.6539 -0.4519 -0.6068
vn 0.5205 -0.7042 -0.4830
vn 0.3360 -0.8887 -0.3118
vn 0.1535 -0.9778 -0.1425
vn 0.7371 0.4519 -0.5025
vn 0.5867 0.7042 -0.4000
vn 0.3787 0.8887 -0.2582
vn 0.1731 0.9778 -0.1180
vn 0.7371 -0.4519 -0.5025
vn 0.5867 -0.7042 -0.4000
vn 0.3787 -0.8887 -0.2582
vn 0.1731 -0.9778 -0.1180
vn 0.7730 0.4509 -0.4463
vn 0.6158 0.7032 -0.3555
vn 0.3979 0.8882 -0.2297
vn 0.1819 0.9777 -0.1050
vn 0.7730 -0.4509 -0.4463
vn 0.6158 -0.7032 -0.3555
vn 0.3979 -0.8882 -0.2297
vn 0.1819 -0.9777 -0.1050
vn 0.4339 -0.0000 0.9010
vn -0.9972 0.0000 0.0747
vn 0.4339 0.0000 0.9010
# 131 vertex normals

vt 0.0216 0.3565 0.5014
vt 0.0893 0.3565 0.5014
vt 0.0893 0.4817 0.5014
vt 0.0216 0.4817 0.5014
vt 0.1570 0.3565 0.5013
vt 0.1570 0.4817 0.5013
vt 0.2248 0.3565 0.5012
vt 0.2248 0.4817 0.5012
vt 0.2926 0.3565 0.5011
vt 0.2926 0.4817 0.5011
vt 0.3604 0.3565 0.5009
vt 0.3604 0.4817 0.5009
vt 0.4283 0.3565 0.5006
vt 0.4283 0.4817 0.5006
vt 0.4963 0.3565 0.5004
vt 0.4963 0.4817 0.5004
vt 0.5643 0.3565 0.5003
vt 0.5643 0.4817 0.5003
vt 0.4544 0.9506 0.0000
vt 0.4019 0.9506 0.0000
vt 0.4281 0.5992 0.0000
vt 0.0323 0.9527 0.0000
vt 0.0848 0.9527 0.0000
vt 0.0585 0.6013 0.0000
vt 0.5063 0.9427 0.0000
vt 0.1367 0.9448 0.0000
vt 0.5565 0.9272 0.0000
vt 0.1869 0.9293 0.0000
vt 0.6038 0.9043 0.0000
vt 0.2342 0.9065 0.0000
vt 0.6472 0.8747 0.0000
vt 0.2776 0.8768 0.0000
vt 0.6857 0.8388 0.0000
vt 0.3161 0.8410 0.0000
vt 0.7184 0.7977 0.0000
vt 0.3488 0.7998 0.0000
vt 0.7447 0.7521 0.0000
vt 0.3751 0.7542 0.0000
vt 0.0893 0.3336 0.4993
vt 0.0216 0.3336 0.4993
vt 0.0216 0.5047 0.4993
vt 0.0893 0.5047 0.4993
vt 0.1570 0.3336 0.4992
vt 0.1570 0.5047 0.4992
vt 0.2248 0.3336 0.4991
vt 0.2248 0.5047 0.4991
vt 0.2926 0.3336 0.4989
vt 0.2926 0.5047 0.4989
vt 0.3604 0.3336 0.4987
vt 0.3604 0.5047 0.4987
vt 0.4283 0.3336 0.4985
vt 0.4283 0.5047 0.4985
vt 0.4963 0.3336 0.4983
vt 0.4963 0.5047 0.4983
vt 0.5643 0.3336 0.4981
vt 0.5643 0.5047 0.4981
vt 0.0893 0.3148 0.4929
vt 0.0216 0.3148 0.4929
vt 0.0893 0.3002 0.4822
vt 0.0216 0.3002 0.4822
vt 0.0893 0.2897 0.4673
vt 0.0216 0.2897 0.4673
vt 0.4558 0.9699 0.0000
vt 0.4570 0.9858 0.0000
vt 0.3992 0.9858 0.0000
vt 0.4004 0.9699 0.0000
vt 0.0216 0.5235 0.4929
vt 0.0893 0.5235 0.4929
vt 0.0216 0.5381 0.4822
vt 0.0893 0.5381 0.4822
vt 0.0216 0.5485 0.4673
vt 0.0893 0.5485 0.4673
vt 0.0308 0.9720 0.0000
vt 0.0296 0.9879 0.0000
vt 0.0874 0.9879 0.0000
vt 0.0862 0.9720 0.0000
vt 0.1570 0.3148 0.4928
vt 0.1570 0.3002 0.4822
vt 0.1570 0.2897 0.4673
vt 0.5106 0.9616 0.0000
vt 0.5142 0.9771 0.0000
vt 0.1570 0.5235 0.4928
vt 0.1570 0.5381 0.4822
vt 0.1570 0.5485 0.4673
vt 0.1445 0.9792 0.0000
vt 0.1410 0.9638 0.0000
vt 0.2248 0.3148 0.4927
vt 0.2248 0.3002 0.4821
vt 0.2248 0.2897 0.4672
vt 0.5636 0.9453 0.0000
vt 0.5694 0.9601 0.0000
vt 0.2248 0.5235 0.4927
vt 0.2248 0.5381 0.4821
vt 0.2248 0.5485 0.4672
vt 0.1998 0.9622 0.0000
vt 0.1940 0.9474 0.0000
vt 0.2926 0.3148 0.4925
vt 0.2926 0.3002 0.4819
vt 0.2926 0.2897 0.4670
vt 0.6135 0.9212 0.0000
vt 0.6214 0.9349 0.0000
vt 0.2926 0.5235 0.4925
vt 0.2926 0.5381 0.4819
vt 0.2926 0.5485 0.4670
vt 0.2518 0.9370 0.0000
vt 0.2439 0.9233 0.0000
vt 0.3604 0.3148 0.4924
vt 0.3604 0.3002 0.4817
vt 0.3604 0.2897 0.4668
vt 0.6593 0.8899 0.0000
vt 0.6692 0.9023 0.0000
vt 0.3604 0.5235 0.4924
vt 0.3604 0.5381 0.4817
vt 0.3604 0.5485 0.4668
vt 0.2996 0.9044 0.0000
vt 0.2897 0.8920 0.0000
vt 0.4283 0.3148 0.4921
vt 0.4283 0.3002 0.4815
vt 0.4283 0.2897 0.4666
vt 0.6999 0.8521 0.0000
vt 0.7115 0.8629 0.0000
vt 0.4283 0.5235 0.4921
vt 0.4283 0.5381 0.4815
vt 0.4283 0.5485 0.4666
vt 0.3419 0.8650 0.0000
vt 0.3303 0.8542 0.0000
vt 0.4963 0.3148 0.4919
vt 0.4963 0.3002 0.4813
vt 0.4963 0.2897 0.4665
vt 0.7344 0.8086 0.0000
vt 0.7475 0.8176 0.0000
vt 0.4963 0.5235 0.4919
vt 0.4963 0.5381 0.4813
vt 0.4963 0.5485 0.4665
vt 0.3779 0.8197 0.0000
vt 0.3648 0.8107 0.0000
vt 0.5643 0.3148 0.4918
vt 0.5643 0.3002 0.4812
vt 0.5643 0.2897 0.4663
vt 0.7622 0.7605 0.0000
vt 0.7764 0.7674 0.0000
vt 0.5643 0.5235 0.4918
vt 0.5643 0.5381 0.4812
vt 0.5643 0.5485 0.4663
vt 0.4068 0.7695 0.0000
vt 0.3925 0.7626 0.0000
vt 0.1145 0.2688 0.0000
vt 0.1145 0.0210 0.0000
vt 0.4903 0.0210 0.0000
vt 0.4903 0.2688 0.0000
vt 0.8462 0.6169 0.0000
vt 0.5984 0.6169 0.0000
vt 0.5984 0.2411 0.0000
vt 0.8462 0.2411 0.0000
vt 0.6003 0.2204 0.0000
vt 0.8443 0.2204 0.0000
vt 0.6059 0.2034 0.0000
vt 0.8387 0.2034 0.0000
vt 0.6153 0.1903 0.0000
vt 0.8293 0.1903 0.0000
vt 0.6284 0.1808 0.0000
vt 0.8162 0.1808 0.0000
vt 0.6453 0.1752 0.0000
vt 0.7993 0.1752 0.0000
vt 0.6660 0.1733 0.0000
vt 0.7786 0.1733 0.0000
vt 0.0938 0.2670 0.0000
vt 0.0938 0.0229 0.0000
vt 0.0769 0.2613 0.0000
vt 0.0769 0.0286 0.0000
vt 0.0637 0.2519 0.0000
vt 0.0637 0.0379 0.0000
vt 0.0543 0.2388 0.0000
vt 0.0543 0.0511 0.0000
vt 0.0486 0.2219 0.0000
vt 0.0486 0.0680 0.0000
vt 0.0468 0.2013 0.0000
vt 0.0468 0.0886 0.0000
# 178 texture coords

g Cylinder01
usemtl 01___Default
s 1
f 1/1/1 2/2/2 3/3/3 4/4/4 
f 2/2/2 5/5/5 6/6/6 3/3/3 
f 5/5/5 7/7/7 8/8/8 6/6/6 
f 7/7/7 9/9/9 10/10/10 8/8/8 
f 9/9/9 11/11/11 12/12/12 10/10/10 
f 11/11/11 13/13/13 14/14/14 12/12/12 
f 13/13/13 15/15/15 16/16/16 14/14/14 
f 15/15/15 17/17/17 18/18/18 16/16/16 
f 19/19/19 20/20/20 21/21/21 
f 22/22/22 23/23/23 24/24/24 
f 25/25/25 19/19/19 21/21/21 
f 23/23/23 26/26/26 24/24/24 
f 27/27/27 25/25/25 21/21/21 
f 26/26/26 28/28/28 24/24/24 
f 29/29/29 27/27/27 21/21/21 
f 28/28/28 30/30/30 24/24/24 
f 31/31/31 29/29/29 21/21/21 
f 30/30/30 32/32/32 24/24/24 
f 33/33/33 31/31/31 21/21/21 
f 32/32/32 34/34/34 24/24/24 
f 35/35/35 33/33/33 21/21/21 
f 34/34/34 36/36/36 24/24/24 
f 37/37/37 35/35/35 21/21/21 
f 36/36/36 38/38/38 24/24/24 
f 39/39/39 2/2/2 1/1/1 40/40/40 
f 41/41/41 4/4/4 3/3/3 42/42/42 
f 43/43/43 5/5/5 2/2/2 39/39/39 
f 42/42/42 3/3/3 6/6/6 44/44/44 
f 45/45/45 7/7/7 5/5/5 43/43/43 
f 44/44/44 6/6/6 8/8/8 46/46/46 
f 47/47/47 9/9/9 7/7/7 45/45/45 
f 46/46/46 8/8/8 10/10/10 48/48/48 
f 49/49/49 11/11/11 9/9/9 47/47/47 
f 48/48/48 10/10/10 12/12/12 50/50/50 
f 51/51/51 13/13/13 11/11/11 49/49/49 
f 50/50/50 12/12/12 14/14/14 52/52/52 
f 53/53/53 15/15/15 13/13/13 51/51/51 
f 52/52/52 14/14/14 16/16/16 54/54/54 
f 55/55/55 17/17/17 15/15/15 53/53/53 
f 54/54/54 16/16/16 18/18/18 56/56/56 
f 57/57/57 39/39/39 40/40/40 58/58/58 
f 59/59/59 57/57/57 58/58/58 60/60/60 
f 61/61/61 59/59/59 60/60/60 62/62/62 
f 63/63/63 61/64/61 62/65/62 64/66/64 
f 19/19/19 63/63/63 64/66/64 20/20/20 
f 65/67/65 41/41/41 42/42/42 66/68/66 
f 67/69/67 65/67/65 66/68/66 68/70/68 
f 69/71/69 67/69/67 68/70/68 70/72/70 
f 71/73/71 69/74/69 70/75/70 72/76/72 
f 22/22/22 71/73/71 72/76/72 23/23/23 
f 73/77/73 43/43/43 39/39/39 57/57/57 
f 74/78/74 73/77/73 57/57/57 59/59/59 
f 75/79/75 74/78/74 59/59/59 61/61/61 
f 76/80/76 75/81/75 61/64/61 63/63/63 
f 25/25/25 76/80/76 63/63/63 19/19/19 
f 66/68/66 42/42/42 44/44/44 77/82/77 
f 68/70/68 66/68/66 77/82/77 78/83/78 
f 70/72/70 68/70/68 78/83/78 79/84/79 
f 72/76/72 70/75/70 79/85/79 80/86/80 
f 23/23/23 72/76/72 80/86/80 26/26/26 
f 81/87/81 45/45/45 43/43/43 73/77/73 
f 82/88/82 81/87/81 73/77/73 74/78/74 
f 83/89/83 82/88/82 74/78/74 75/79/75 
f 84/90/84 83/91/83 75/81/75 76/80/76 
f 27/27/27 84/90/84 76/80/76 25/25/25 
f 77/82/77 44/44/44 46/46/46 85/92/85 
f 78/83/78 77/82/77 85/92/85 86/93/86 
f 79/84/79 78/83/78 86/93/86 87/94/87 
f 80/86/80 79/85/79 87/95/87 88/96/88 
f 26/26/26 80/86/80 88/96/88 28/28/28 
f 89/97/89 47/47/47 45/45/45 81/87/81 
f 90/98/90 89/97/89 81/87/81 82/88/82 
f 91/99/91 90/98/90 82/88/82 83/89/83 
f 92/100/92 91/101/91 83/91/83 84/90/84 
f 29/29/29 92/100/92 84/90/84 27/27/27 
f 85/92/85 46/46/46 48/48/48 93/102/93 
f 86/93/86 85/92/85 93/102/93 94/103/94 
f 87/94/87 86/93/86 94/103/94 95/104/95 
f 88/96/88 87/95/87 95/105/95 96/106/96 
f 28/28/28 88/96/88 96/106/96 30/30/30 
f 97/107/97 49/49/49 47/47/47 89/97/89 
f 98/108/98 97/107/97 89/97/89 90/98/90 
f 99/109/99 98/108/98 90/98/90 91/99/91 
f 100/110/100 99/111/99 91/101/91 92/100/92 
f 31/31/31 100/110/100 92/100/92 29/29/29 
f 93/102/93 48/48/48 50/50/50 101/112/101 
f 94/103/94 93/102/93 101/112/101 102/113/102 
f 95/104/95 94/103/94 102/113/102 103/114/103 
f 96/106/96 95/105/95 103/115/103 104/116/104 
f 30/30/30 96/106/96 104/116/104 32/32/32 
f 105/117/105 51/51/51 49/49/49 97/107/97 
f 106/118/106 105/117/105 97/107/97 98/108/98 
f 107/119/107 106/118/106 98/108/98 99/109/99 
f 108/120/108 107/121/107 99/111/99 100/110/100 
f 33/33/33 108/120/108 100/110/100 31/31/31 
f 101/112/101 50/50/50 52/52/52 109/122/109 
f 102/113/102 101/112/101 109/122/109 110/123/110 
f 103/114/103 102/113/102 110/123/110 111/124/111 
f 104/116/104 103/115/103 111/125/111 112/126/112 
f 32/32/32 104/116/104 112/126/112 34/34/34 
f 113/127/113 53/53/53 51/51/51 105/117/105 
f 114/128/114 113/127/113 105/117/105 106/118/106 
f 115/129/115 114/128/114 106/118/106 107/119/107 
f 116/130/116 115/131/115 107/121/107 108/120/108 
f 35/35/35 116/130/116 108/120/108 33/33/33 
f 109/122/109 52/52/52 54/54/54 117/132/117 
f 110/123/110 109/122/109 117/132/117 118/133/118 
f 111/124/111 110/123/110 118/133/118 119/134/119 
f 112/126/112 111/125/111 119/135/119 120/136/120 
f 34/34/34 112/126/112 120/136/120 36/36/36 
f 121/137/121 55/55/55 53/53/53 113/127/113 
f 122/138/122 121/137/121 113/127/113 114/128/114 
f 123/139/123 122/138/122 114/128/114 115/129/115 
f 124/140/124 123/141/123 115/131/115 116/130/116 
f 37/37/37 124/140/124 116/130/116 35/35/35 
f 117/132/117 54/54/54 56/56/56 125/142/125 
f 118/133/118 117/132/117 125/142/125 126/143/126 
f 119/134/119 118/133/118 126/143/126 127/144/127 
f 120/136/120 119/135/119 127/145/127 128/146/128 
f 36/36/36 120/136/120 128/146/128 38/38/38 
s off
f 38/147/129 37/148/129 21/149/129 24/150/129 
f 24/151/130 21/152/130 20/153/130 22/154/130 
f 64/155/130 71/156/130 22/154/130 20/153/130 
f 71/156/130 64/155/130 62/157/130 69/158/130 
f 69/158/130 62/157/130 60/159/130 67/160/130 
f 67/160/130 60/159/130 58/161/130 65/162/130 
f 65/162/130 58/161/130 40/163/130 41/164/130 
f 41/164/130 40/163/130 1/165/130 4/166/130 
f 37/148/131 38/147/131 128/167/131 124/168/131 
f 127/169/131 123/170/131 124/168/131 128/167/131 
f 126/171/131 122/172/131 123/170/131 127/169/131 
f 125/173/131 121/174/131 122/172/131 126/171/131 
f 56/175/131 55/176/131 121/174/131 125/173/131 
f 55/176/131 56/175/131 18/177/131 17/178/131 
# 118 polygons - 16 triangles

