# This file uses centimeters as units for non-parametric coordinates.

mtllib bananaCollisionMesh.mtl
g default
v 4.537940 1.650026 5.871621
v 5.390047 1.650026 5.871621
v 4.713399 2.038806 5.678584
v 5.214588 2.038806 5.678584
v 4.668088 4.236283 -0.329004
v 5.259899 4.236283 -0.329004
v 4.668088 4.061933 -0.894549
v 5.259899 4.061933 -0.894549
v 4.401045 1.812369 1.970990
v 4.181094 0.293764 1.508655
v 5.768518 0.293764 1.508655
v 5.548567 1.812369 1.970990
v 4.340806 1.537012 3.691155
v 4.256089 0.103048 3.861386
v 5.671898 0.103048 3.861386
v 5.587180 1.537012 3.691155
v 4.564263 2.655043 0.802770
v 4.157718 1.373145 -0.175525
v 5.770269 1.373145 -0.175525
v 5.363723 2.655043 0.802770
v 4.589580 3.700675 0.071614
v 4.358130 2.506772 -1.122276
v 5.569856 2.506772 -1.122276
v 5.338406 3.700675 0.071614
v 4.958960 2.136062 5.658564
v 4.951477 1.753147 3.665497
v 4.963282 2.002585 2.028901
v 4.955965 2.762843 0.885039
v 4.956473 3.792442 0.163380
v 4.958050 4.353093 -0.336691
v 4.958050 4.178744 -0.902236
v 4.951825 2.358277 -1.270770
v 4.947799 1.155708 -0.341464
v 4.958864 0.030629 1.428545
v 4.949775 -0.142469 3.890532
v 4.955436 1.505437 5.890411
vt 0.375000 0.000000
vt 0.625000 0.000000
vt 0.375000 0.250000
vt 0.625000 0.250000
vt 0.375000 0.500000
vt 0.625000 0.500000
vt 0.375000 0.750000
vt 0.625000 0.750000
vt 0.375000 1.000000
vt 0.625000 1.000000
vt 0.875000 0.000000
vt 0.875000 0.250000
vt 0.125000 0.000000
vt 0.125000 0.250000
vt 0.245449 0.250000
vt 0.375000 0.379551
vt 0.245449 0.000000
vt 0.375000 0.870449
vt 0.625000 0.870449
vt 0.754551 0.000000
vt 0.625000 0.379551
vt 0.754551 0.250000
vt 0.314921 0.250000
vt 0.375000 0.310079
vt 0.314921 0.000000
vt 0.375000 0.939921
vt 0.625000 0.939921
vt 0.685079 0.000000
vt 0.625000 0.310079
vt 0.685079 0.250000
vt 0.188891 0.250000
vt 0.375000 0.436109
vt 0.188891 0.000000
vt 0.375000 0.813891
vt 0.625000 0.813891
vt 0.811109 0.000000
vt 0.625000 0.436109
vt 0.811109 0.250000
vt 0.157185 0.250000
vt 0.375000 0.467815
vt 0.157185 0.000000
vt 0.375000 0.782185
vt 0.625000 0.782185
vt 0.842815 0.000000
vt 0.625000 0.467815
vt 0.842815 0.250000
vt 0.497489 0.250000
vt 0.497489 0.310079
vt 0.497489 0.379551
vt 0.497489 0.436109
vt 0.497489 0.467815
vt 0.497489 0.500000
vt 0.497489 0.750000
vt 0.497489 0.782185
vt 0.497489 0.813891
vt 0.497489 0.870449
vt 0.497489 0.939921
vt 0.497489 0.000000
vt 0.497489 1.000000
vn 0.028858 0.380236 0.924439
vn -0.000017 0.380563 0.924755
vn -0.000284 0.380565 0.924754
vn 0.028858 0.380236 0.924439
vn -0.346672 0.922110 -0.171847
vn 0.000768 0.982823 -0.184548
vn -0.001351 0.999994 -0.003096
vn -0.340354 0.940296 -0.001747
vn -0.365589 0.889468 -0.274211
vn 0.000384 0.955619 -0.294605
vn -0.000345 0.955619 -0.294605
vn -0.365589 0.889468 -0.274211
vn -0.330546 -0.911087 0.246291
vn -0.000219 -0.968403 0.249393
vn -0.000174 -0.772005 0.635617
vn -0.285876 -0.739389 0.609573
vn 0.984342 0.156622 0.080875
vn 0.991912 0.119026 0.044071
vn 0.991460 0.121751 0.046731
vn 0.984342 0.156622 0.080875
vn -0.992111 0.119745 0.037118
vn -0.984342 0.156622 0.080875
vn -0.984342 0.156622 0.080875
vn -0.991662 0.122411 0.040269
vn -0.980743 0.177456 0.081562
vn -0.989462 0.138414 0.042497
vn -0.988918 0.141544 0.044797
vn -0.980754 0.176793 0.082860
vn -0.328091 -0.722801 -0.608207
vn -0.000701 -0.764161 -0.645025
vn 0.001321 -0.954099 -0.299490
vn -0.335351 -0.897240 -0.287228
vn 0.988604 0.143833 0.044440
vn 0.989156 0.140442 0.042979
vn 0.980657 0.180722 0.075175
vn 0.980691 0.179632 0.077314
vn -0.332604 0.898394 0.286816
vn 0.001032 0.946871 0.321612
vn -0.000849 0.735380 0.677655
vn -0.327096 0.704943 0.629335
vn -0.981781 0.173699 0.077042
vn -0.982875 0.175791 0.055267
vn -0.281094 -0.286543 -0.915904
vn 0.000341 -0.341475 -0.939891
vn 0.981781 0.173699 0.077042
vn 0.982875 0.175791 0.055267
vn 0.000059 0.600661 0.799503
vn -0.312446 0.567827 0.761545
vn -0.983280 0.181705 -0.011957
vn -0.983280 0.181705 -0.011957
vn -0.164503 0.186497 -0.968585
vn 0.001344 0.188476 -0.982077
vn 0.983280 0.181705 -0.011957
vn 0.983280 0.181705 -0.011957
vn 0.001699 0.647430 0.762123
vn -0.290199 0.620068 0.728903
vn 0.334544 0.925966 -0.175120
vn 0.328487 0.944508 0.000362
vn 0.320628 0.901901 0.289434
vn 0.315695 0.709461 0.630080
vn 0.301193 0.569591 0.764754
vn 0.279502 0.621153 0.732153
vn 0.353019 0.894093 -0.275637
vn 0.353019 0.894093 -0.275637
vn 0.158265 0.185544 -0.969807
vn 0.271244 -0.290239 -0.917708
vn 0.316335 -0.725332 -0.611413
vn 0.323722 -0.901010 -0.288765
vn 0.318813 -0.915176 0.246600
vn 0.275697 -0.742469 0.610518
vn -0.027745 0.380579 0.924332
vn -0.027745 0.380579 0.924332
s 1
g pCube1
usemtl initialShadingGroup
f 1/1/1 36/58/2 25/47/3 3/3/4
s 2
f 3/3/5 25/47/6 26/48/7 13/24/8
s 3
f 5/5/9 30/52/10 31/53/11 7/7/12
s 4
f 14/26/13 35/57/14 36/59/15 1/9/16
s 5
f 2/2/17 15/28/18 16/30/19 4/4/20
s 6
f 14/25/21 1/1/22 3/3/23 13/23/24
f 18/33/25 10/17/26 9/15/27 17/31/28
s 4
f 18/34/29 33/55/30 34/56/31 10/18/32
s 5
f 12/22/33 11/20/34 19/36/35 20/38/36
s 2
f 9/16/37 27/49/38 28/50/39 17/32/40
s 6
f 10/17/26 14/25/21 13/23/24 9/15/27
s 4
f 10/18/32 34/56/31 35/57/14 14/26/13
s 5
f 16/30/19 15/28/18 11/20/34 12/22/33
s 2
f 13/24/8 26/48/7 27/49/38 9/16/37
s 6
f 22/41/41 18/33/25 17/31/28 21/39/42
s 4
f 22/42/43 32/54/44 33/55/30 18/34/29
s 5
f 20/38/36 19/36/35 23/44/45 24/46/46
s 2
f 17/32/40 28/50/39 29/51/47 21/40/48
s 6
f 7/13/49 22/41/41 21/39/42 5/14/50
s 4
f 7/7/51 31/53/52 32/54/44 22/42/43
s 5
f 24/46/46 23/44/45 8/11/53 6/12/54
s 2
f 21/40/48 29/51/47 30/52/55 5/5/56
f 25/47/6 4/4/57 16/29/58 26/48/7
f 27/49/38 26/48/7 16/29/58 12/21/59
f 28/50/39 27/49/38 12/21/59 20/37/60
f 29/51/47 28/50/39 20/37/60 24/45/61
f 30/52/55 29/51/47 24/45/61 6/6/62
s 3
f 31/53/11 30/52/10 6/6/63 8/8/64
s 4
f 32/54/44 31/53/52 8/8/65 23/43/66
f 33/55/30 32/54/44 23/43/66 19/35/67
f 34/56/31 33/55/30 19/35/67 11/19/68
f 35/57/14 34/56/31 11/19/68 15/27/69
f 36/59/15 35/57/14 15/27/69 2/10/70
s 1
f 25/47/3 36/58/2 2/2/71 4/4/72
