# This file uses centimeters as units for non-parametric coordinates.

mtllib kiwiSlice01CollisionMesh.mtl
g default
v 2.497122 -0.798403 1.068397
v 4.373486 -0.798403 1.068397
v 2.497122 0.798403 1.068397
v 4.373485 0.798403 1.068397
v 2.920524 0.514780 -0.381299
v 3.950084 0.514780 -0.381299
v 2.920524 -0.514780 -0.381299
v 3.950084 -0.514780 -0.381299
v 2.740351 0.694953 0.133481
v 4.130257 0.000000 -0.561472
v 3.435304 -0.694953 -0.561472
v 2.740351 0.000000 -0.561472
v 4.130257 -0.694953 0.133481
v 2.740351 -0.694953 0.133481
v 3.435304 -1.077845 1.068400
v 4.701850 -0.000000 1.068400
v 3.435304 1.077845 1.068400
v 2.168758 0.000000 1.068400
v 4.130257 0.694953 0.133481
v 3.435304 0.694953 -0.561472
v 3.435304 0.000000 1.068403
v 3.435304 0.926604 0.133481
v 3.435304 0.000000 -0.793123
v 3.435304 -0.926604 0.133481
v 4.361908 0.000000 0.133481
v 2.508700 0.000000 0.133481
vt 0.375000 0.000000
vt 0.375000 1.000000
vt 0.625000 0.000000
vt 0.625000 1.000000
vt 0.375000 0.250000
vt 0.625000 0.250000
vt 0.375000 0.500000
vt 0.125000 0.250000
vt 0.625000 0.500000
vt 0.875000 0.250000
vt 0.375000 0.750000
vt 0.125000 0.000000
vt 0.625000 0.750000
vt 0.875000 0.000000
vt 0.500000 0.125000
vt 0.500000 0.375000
vt 0.500000 0.625000
vt 0.500000 0.875000
vt 0.750000 0.125000
vt 0.250000 0.125000
vt 0.500000 0.000000
vt 0.500000 1.000000
vt 0.625000 0.125000
vt 0.500000 0.250000
vt 0.375000 0.125000
vt 0.625000 0.375000
vt 0.750000 0.250000
vt 0.500000 0.500000
vt 0.375000 0.375000
vt 0.250000 0.250000
vt 0.625000 0.625000
vt 0.875000 0.125000
vt 0.500000 0.750000
vt 0.375000 0.625000
vt 0.125000 0.125000
vt 0.625000 0.875000
vt 0.750000 0.000000
vt 0.375000 0.875000
vt 0.250000 0.000000
vn -0.532667 -0.543648 0.648624
vn 0.000000 -0.730137 0.683300
vn 0.000000 -0.000000 1.000000
vn -0.760203 -0.000000 0.649686
vn 0.532667 -0.543648 0.648624
vn 0.760203 0.000000 0.649686
vn 0.532667 0.543648 0.648624
vn -0.000000 0.730137 0.683300
vn -0.532667 0.543648 0.648624
vn -0.000000 0.971620 -0.236549
vn -0.641824 0.710168 -0.289350
vn 0.641825 0.710168 -0.289350
vn 0.577350 0.577350 -0.577350
vn -0.000000 0.707107 -0.707107
vn -0.577350 0.577350 -0.577350
vn -0.000000 -0.000000 -1.000000
vn -0.707107 -0.000000 -0.707107
vn 0.707107 0.000000 -0.707107
vn 0.577350 -0.577350 -0.577350
vn -0.000000 -0.707107 -0.707107
vn -0.577350 -0.577350 -0.577350
vn 0.000000 -0.971620 -0.236549
vn -0.641825 -0.710168 -0.289350
vn 0.641824 -0.710168 -0.289350
vn 0.942824 0.000000 -0.333290
vn -0.942824 -0.000000 -0.333290
s 1
g pCube2
usemtl initialShadingGroup
f 1/1/1 15/21/2 21/15/3 18/25/4
f 15/21/2 2/3/5 16/23/6 21/15/3
f 21/15/3 16/23/6 4/6/7 17/24/8
f 18/25/4 21/15/3 17/24/8 3/5/9
f 3/5/9 17/24/8 22/16/10 9/29/11
f 17/24/8 4/6/7 19/26/12 22/16/10
f 22/16/10 19/26/12 6/9/13 20/28/14
f 9/29/11 22/16/10 20/28/14 5/7/15
f 5/7/15 20/28/14 23/17/16 12/34/17
f 20/28/14 6/9/13 10/31/18 23/17/16
f 23/17/16 10/31/18 8/13/19 11/33/20
f 12/34/17 23/17/16 11/33/20 7/11/21
f 7/11/21 11/33/20 24/18/22 14/38/23
f 11/33/20 8/13/19 13/36/24 24/18/22
f 24/18/22 13/36/24 2/4/5 15/22/2
f 14/38/23 24/18/22 15/22/2 1/2/1
f 2/3/5 13/37/24 25/19/25 16/23/6
f 13/37/24 8/14/19 10/32/18 25/19/25
f 25/19/25 10/32/18 6/10/13 19/27/12
f 16/23/6 25/19/25 19/27/12 4/6/7
f 7/12/21 14/39/23 26/20/26 12/35/17
f 14/39/23 1/1/1 18/25/4 26/20/26
f 26/20/26 18/25/4 3/5/9 9/30/11
f 12/35/17 26/20/26 9/30/11 5/8/15
