# This file uses centimeters as units for non-parametric coordinates.

mtllib PIzzaToZbrush.mtl
g default
v -0.198321 -0.127586 3.149572
v 0.198398 -0.127590 3.149573
v -0.198512 0.127590 3.149572
v 0.198535 0.127586 3.149573
v -2.022244 0.634624 -3.377002
v 2.022244 0.634624 -3.377002
v -2.081274 -0.500000 -3.372111
v 2.081274 -0.500000 -3.372111
v 1.675595 0.358130 -2.320944
v -1.675182 0.357930 -2.328346
v -1.852741 -0.443166 -2.380316
v 1.852768 -0.442959 -2.380415
v 2.001238 0.780402 -2.265618
v -2.001238 0.780402 -2.265618
v 2.255597 0.906941 -3.230536
v -2.255597 0.906941 -3.230536
v -2.501389 -0.500000 -3.132710
v -2.216391 -0.443071 -2.328730
v 2.216392 -0.443054 -2.328738
v 2.501389 -0.500000 -3.132710
v -1.195013 0.819855 -2.447868
v -1.113639 0.442997 -2.447258
v -0.118377 0.127589 3.149572
v -0.117923 -0.127587 3.149572
v -1.111635 -0.443125 -2.528459
v -1.248764 -0.500000 -3.578799
v -1.170172 0.789576 -3.576646
v -1.269935 1.158282 -3.487111
v -0.399852 0.809617 -2.513342
v -0.371350 0.443040 -2.497385
v -0.039433 0.127588 3.149572
v -0.039281 -0.127588 3.149573
v -0.370679 -0.443083 -2.582902
v -0.416255 -0.500000 -3.683033
v -0.389392 0.796491 -3.674098
v -0.423312 1.158282 -3.602066
v 0.399881 0.809624 -2.513346
v 0.371497 0.443085 -2.497406
v 0.039454 0.127588 3.149573
v 0.039307 -0.127588 3.149573
v 0.370719 -0.443042 -2.582922
v 0.416255 -0.500000 -3.683033
v 0.389393 0.796491 -3.674098
v 0.423312 1.158282 -3.602066
v 1.195033 0.819871 -2.447875
v 1.113780 0.443128 -2.447321
v 0.118398 0.127587 3.149573
v 0.117949 -0.127589 3.149573
v 1.111671 -0.443000 -2.528519
v 1.248764 -0.500000 -3.578799
v 1.170172 0.789576 -3.576646
v 1.269935 1.158282 -3.487111
v -2.222452 0.976754 -2.682878
v -2.350845 -0.482159 -2.612142
v -1.994562 -0.612599 -2.925241
v -1.179701 -0.568538 -3.125727
v -0.393538 -0.572110 -3.209012
v 0.393538 -0.572110 -3.209012
v 1.179701 -0.568538 -3.125727
v 1.994679 -0.612236 -2.925415
v 2.352560 -0.486659 -2.610347
v 2.222592 0.976978 -2.684657
v 1.281068 1.164226 -2.926212
v 0.429843 1.174210 -3.022096
v -0.429843 1.174210 -3.022096
v -1.281068 1.164227 -2.926212
v -2.116676 0.225056 -2.114506
v -1.925357 0.049159 -2.252886
v -0.187400 0.009925 3.199818
v -0.108329 0.009926 3.193255
v -0.035798 0.009924 3.193819
v 0.035813 0.009924 3.193819
v 0.108347 0.009924 3.193255
v 0.187234 0.009921 3.199779
v 1.926085 0.049465 -2.247668
v 2.116348 0.225615 -2.116387
v 2.497088 0.310570 -2.537411
v 2.511853 0.241150 -3.295218
v 2.079866 0.024031 -3.489181
v 1.194579 0.106052 -3.713139
v 0.396788 0.105557 -3.811521
v -0.396788 0.105557 -3.811521
v -1.194579 0.106052 -3.713139
v -2.079880 0.024094 -3.489162
v -2.516179 0.241319 -3.294332
v -2.495232 0.313811 -2.537766
v 0.415726 0.190673 2.030202
v 0.646872 0.173661 2.055482
v 0.700440 0.017791 2.110304
v 0.696583 -0.190699 2.043588
v 0.414642 -0.190693 2.013963
v 0.138382 -0.190686 2.003076
v -0.138301 -0.190680 2.003075
v -0.414561 -0.190672 2.013958
v -0.696259 -0.190667 2.043582
v -0.700675 0.017810 2.109264
v -0.646734 0.173692 2.053977
v -0.415665 0.190693 2.030198
v -0.138707 0.190686 2.020178
v 0.138769 0.190680 2.020180
v 0.671093 0.253830 0.910805
v 1.016101 0.219845 0.961350
v 1.140400 0.025782 1.020783
v 1.105401 -0.253686 0.937558
v 0.667554 -0.253726 0.878325
v 0.223577 -0.253761 0.856571
v -0.223562 -0.253795 0.856586
v -0.667541 -0.253829 0.878371
v -1.105027 -0.253869 0.937637
v -1.140277 0.025574 1.018754
v -1.015546 0.219684 0.958421
v -0.671190 0.253726 0.910851
v -0.224793 0.253761 0.890793
v 0.224927 0.253795 0.890778
v 0.861813 0.317038 -0.208617
v 1.300078 0.266103 -0.132817
v 1.475845 0.033861 -0.068779
v 1.426311 -0.316596 -0.168510
v 0.857906 -0.316711 -0.257335
v 0.287252 -0.316818 -0.289942
v -0.287341 -0.316927 -0.289895
v -0.858003 -0.317035 -0.257194
v -1.425825 -0.317148 -0.168270
v -1.475590 0.033251 -0.071714
v -1.299462 0.265604 -0.137099
v -0.861606 0.316707 -0.208473
v -0.288573 0.316817 -0.238584
v 0.288792 0.316929 -0.238633
v 1.050697 0.380229 -1.328041
v 1.579745 0.312331 -1.226986
v 1.805560 0.041908 -1.158344
v 1.740366 -0.379543 -1.274578
v 1.048609 -0.379708 -1.392999
v 0.350493 -0.379880 -1.436456
v -0.350548 -0.380055 -1.436374
v -1.048679 -0.380227 -1.392754
v -1.740470 -0.380393 -1.274177
v -1.805412 0.040959 -1.162179
v -1.579451 0.311552 -1.232617
v -1.050328 0.379707 -1.327794
v -0.351017 0.379880 -1.367961
v 0.351405 0.380056 -1.368044
vt 0.379891 0.086421
vt 0.387509 0.087726
vt 0.383851 0.098189
vt 0.377826 0.097673
vt 0.461843 0.486683
vt 0.508506 0.476349
vt 0.521176 0.572229
vt 0.469950 0.585718
vt 0.331633 0.785080
vt 0.263644 0.795414
vt 0.229630 0.758563
vt 0.309825 0.727515
vt 0.904291 0.400137
vt 0.943695 0.380128
vt 0.919791 0.320156
vt 0.882554 0.337798
vt 0.538387 0.466602
vt 0.556339 0.561248
vt 0.181134 0.561721
vt 0.199028 0.466883
vt 0.228911 0.476804
vt 0.216270 0.572927
vt 0.325164 0.867333
vt 0.312422 0.918893
vt 0.245614 0.899258
vt 0.252316 0.861695
vt 0.659665 0.873132
vt 0.648116 0.919240
vt 0.606120 0.901510
vt 0.606841 0.860388
vt 0.917729 0.431165
vt 0.960193 0.406778
vt 0.199783 0.904162
vt 0.197896 0.857652
vt 0.331786 0.818847
vt 0.258585 0.822568
vt 0.737213 0.469246
vt 0.135500 0.562664
vt 0.712345 0.916777
vt 0.725644 0.883850
vt 0.607411 0.783092
vt 0.645892 0.746917
vt 0.666215 0.810044
vt 0.608927 0.814936
vt 0.139238 0.842467
vt 0.963365 0.371486
vt 0.214497 0.798125
vt 0.267512 0.585811
vt 0.539378 0.915807
vt 0.275590 0.486641
vt 0.350412 0.087700
vt 0.358065 0.086401
vt 0.360118 0.097584
vt 0.354091 0.098113
vt 0.779067 0.435222
vt 0.763962 0.371014
vt 0.160366 0.465796
vt 0.785633 0.468180
vt 0.524877 0.777133
vt 0.531695 0.716161
vt 0.528014 0.810747
vt 0.532704 0.860689
vt 0.334960 0.591275
vt 0.464873 0.922766
vt 0.337506 0.491031
vt 0.365363 0.085827
vt 0.366014 0.097132
vt 0.821666 0.426581
vt 0.804134 0.362411
vt 0.830982 0.460442
vt 0.457963 0.775359
vt 0.456752 0.710628
vt 0.460967 0.809138
vt 0.463631 0.864237
vt 0.402538 0.591072
vt 0.388280 0.923722
vt 0.399912 0.491088
vt 0.372619 0.085891
vt 0.371933 0.097260
vt 0.863421 0.414882
vt 0.843772 0.351309
vt 0.875037 0.448097
vt 0.393803 0.777511
vt 0.383086 0.713782
vt 0.394579 0.812057
vt 0.393265 0.867148
vt 0.675289 0.727932
vt 0.728335 0.825526
vt 0.788496 0.495416
vt 0.836870 0.488141
vt 0.883587 0.475051
vt 0.928664 0.456141
vt 0.194505 0.733391
vt 0.154523 0.779893
vt 0.341698 0.081264
vt 0.352409 0.076066
vt 0.363394 0.073796
vt 0.374478 0.073501
vt 0.385501 0.075949
vt 0.759506 0.093043
vt 0.426706 0.187513
vt 0.406008 0.191049
vt 0.439271 0.177840
vt 0.806500 0.148683
vt 0.790847 0.154902
vt 0.775215 0.159957
vt 0.759384 0.164395
vt 0.743399 0.168203
vt 0.279867 0.173594
vt 0.298580 0.177827
vt 0.311143 0.187539
vt 0.331837 0.190951
vt 0.356569 0.192557
vt 0.381273 0.192650
vt 0.459178 0.283569
vt 0.428534 0.288913
vt 0.478347 0.274536
vt 0.848031 0.205316
vt 0.824029 0.215686
vt 0.799076 0.224017
vt 0.773592 0.231159
vt 0.747937 0.237011
vt 0.233821 0.270538
vt 0.259320 0.274568
vt 0.278490 0.283701
vt 0.309069 0.288825
vt 0.348761 0.291190
vt 0.388855 0.291217
vt 0.484652 0.379871
vt 0.445454 0.387546
vt 0.509702 0.370569
vt 0.884246 0.262906
vt 0.853397 0.276986
vt 0.821525 0.287912
vt 0.788907 0.297050
vt 0.755987 0.304276
vt 0.195360 0.367211
vt 0.227807 0.370713
vt 0.252859 0.380154
vt 0.292014 0.387473
vt 0.343014 0.390734
vt 0.394451 0.390754
vt 0.722940 0.375293
vt 0.722318 0.308273
vt 0.577164 0.465868
vt 0.542257 0.367346
vt 0.722042 0.240624
vt 0.503928 0.270707
vt 0.726798 0.171025
vt 0.458037 0.173720
vt 0.736714 0.099433
vt 0.396230 0.081285
vt 0.738477 0.496975
vt 0.975423 0.384749
vt 0.140166 0.879532
vt 0.711012 0.458992
vt 0.713643 0.441463
vt 0.278668 0.681416
vt 0.972143 0.431502
vt 0.754884 0.094339
vt 0.369070 0.659804
vt 0.750366 0.095606
vt 0.457433 0.654194
vt 0.745851 0.096871
vt 0.543818 0.662680
vt 0.741333 0.098138
vt 0.991972 0.411510
vt 0.602092 0.562647
vt 0.711066 0.490222
vt 0.734955 0.438613
vt 0.187850 0.920299
vt 0.240344 0.939013
vt 0.655242 0.939462
vt 0.703262 0.951286
vt 0.308805 0.951724
vt 0.387544 0.956723
vt 0.462877 0.955611
vt 0.539070 0.950164
vt 0.603418 0.944484
vt 0.138064 0.915538
vn -0.018343 0.000171 0.999832
vn -0.040947 0.000580 0.999161
vn -0.038014 0.373270 0.926943
vn -0.018939 0.362598 0.931753
vn 0.051804 0.996873 0.059663
vn 0.410968 0.905368 0.106839
vn 0.374632 0.924208 0.074098
vn 0.048910 0.997194 0.056683
vn 0.192111 0.197503 -0.961294
vn 0.280337 0.201501 -0.938514
vn 0.315131 -0.022208 -0.948788
vn 0.186283 0.015688 -0.982371
vn -0.022869 -0.992606 0.119207
vn -0.047772 -0.974030 0.221322
vn -0.009495 -0.998444 0.054942
vn -0.006540 -0.998465 0.054990
vn 0.959590 0.196886 0.201054
vn 0.974198 0.196400 0.111198
vn -0.973500 0.200062 0.110784
vn -0.959298 0.198758 0.200607
vn -0.411910 0.904942 0.106819
vn -0.375920 0.923658 0.074429
vn 0.064439 0.968192 0.241767
vn -0.086348 0.619123 0.780532
vn 0.202797 0.608345 0.767326
vn 0.528128 0.809928 0.255141
vn -0.937407 0.151436 0.313584
vn -0.445087 0.075198 0.892324
vn -0.200914 0.606913 0.768954
vn -0.526941 0.810398 0.256103
vn -0.015464 -0.999219 0.036360
vn 0.025453 -0.998711 0.043912
vn 0.448254 0.077782 0.890516
vn 0.937990 0.150775 0.312158
vn -0.140975 0.037940 0.989286
vn -0.282490 0.050615 0.957934
vn 0.191515 0.853142 -0.485253
vn 0.619315 0.703303 -0.349019
vn -0.026613 -0.998643 0.044767
vn 0.048283 -0.974074 0.221019
vn -0.494779 -0.494376 0.714693
vn -0.826580 -0.474392 0.302847
vn 0.313619 -0.144310 0.938519
vn 0.286257 0.041914 0.957236
vn -0.280159 0.201580 -0.938550
vn -0.314887 -0.022232 -0.948869
vn -0.923750 0.108717 -0.367242
vn -0.617985 0.704548 -0.348864
vn -0.299103 -0.145652 0.943039
vn 0.826020 -0.476306 0.301369
vn 0.491681 -0.493747 0.717261
vn 0.922817 0.109298 -0.369409
vn 0.139052 0.032886 0.989739
vn 0.085771 0.617342 0.782005
vn -0.052409 0.996831 0.059848
vn -0.049726 0.997135 0.057010
vn 0.041153 0.000667 0.999153
vn 0.018451 0.000201 0.999830
vn 0.019056 0.362674 0.931721
vn 0.038213 0.373393 0.926886
vn 0.023089 -0.992632 0.118947
vn 0.006885 -0.998472 0.054830
vn 0.009827 -0.998453 0.054736
vn 0.015576 -0.999223 0.036196
vn -0.192111 0.197503 -0.961294
vn -0.186286 0.015683 -0.982370
vn -0.191597 0.853297 -0.484949
vn -0.064537 0.968231 0.241587
vn 0.036024 0.038634 0.998604
vn 0.035241 0.594807 0.803096
vn 0.001487 0.998440 0.055814
vn 0.001583 0.998435 0.055895
vn -0.001838 0.000322 0.999998
vn -0.001779 0.350881 0.936418
vn 0.004270 -0.993784 0.111240
vn 0.001972 -0.998488 0.054934
vn -0.000192 -0.999151 0.041196
vn -0.060832 0.195476 -0.978820
vn -0.061348 0.004724 -0.998105
vn -0.068881 0.193813 -0.978617
vn 0.012322 0.956829 0.290392
vn -0.035997 0.038577 0.998607
vn -0.035228 0.594813 0.803092
vn -0.001843 0.998442 0.055764
vn -0.001870 0.998441 0.055779
vn 0.001833 0.000321 0.999998
vn 0.001779 0.350880 0.936419
vn -0.004065 -0.993774 0.111343
vn -0.001601 -0.998486 0.054985
vn 0.000221 -0.999150 0.041233
vn 0.060831 0.195476 -0.978820
vn 0.061348 0.004724 -0.998105
vn 0.068881 0.193813 -0.978617
vn -0.012324 0.956830 0.290388
vn -0.076200 -0.985803 -0.149617
vn -0.875665 -0.428161 -0.223361
vn -0.020483 -0.985103 -0.170742
vn -0.009522 -0.988751 -0.149269
vn 0.009522 -0.988751 -0.149269
vn 0.020534 -0.985133 -0.170561
vn 0.075506 -0.985669 -0.150849
vn 0.876063 -0.426038 -0.225844
vn 0.003872 0.999713 -0.023636
vn -0.003872 0.999713 -0.023636
vn -0.978547 -0.175574 0.107798
vn -0.965910 -0.191314 0.174405
vn 0.038880 -0.325553 0.944724
vn 0.019215 -0.315826 0.948623
vn -0.001813 -0.305318 0.952249
vn 0.001804 -0.305317 0.952249
vn -0.019114 -0.315764 0.948645
vn -0.038696 -0.325447 0.944768
vn 0.965519 -0.193516 0.174139
vn 0.978097 -0.177752 0.108309
vn 0.335752 -0.198982 -0.920694
vn 0.179566 -0.202216 -0.962738
vn 0.062504 -0.205800 -0.976596
vn -0.062504 -0.205800 -0.976596
vn -0.179577 -0.202203 -0.962739
vn -0.335528 -0.199391 -0.920687
vn 0.018082 0.998057 0.059622
vn 0.556270 0.783738 0.276256
vn 0.467770 0.856638 0.217629
vn 0.028654 0.997683 0.061713
vn 0.907966 0.055785 0.415314
vn 0.916138 0.101842 0.387710
vn 0.900282 -0.122176 0.417810
vn 0.911314 -0.163708 0.377764
vn -0.004012 -0.998500 0.054597
vn -0.006088 -0.998507 0.054290
vn -0.004485 -0.998497 0.054630
vn -0.002888 -0.998493 0.054797
vn -0.001075 -0.998491 0.054900
vn -0.000818 -0.998490 0.054936
vn 0.001114 -0.998490 0.054920
vn 0.000774 -0.998490 0.054935
vn 0.004065 -0.998497 0.054654
vn 0.002847 -0.998494 0.054792
vn 0.006167 -0.998502 0.054377
vn 0.004450 -0.998497 0.054622
vn -0.916199 0.102977 0.387267
vn -0.911443 -0.163314 0.377626
vn -0.900292 -0.122981 0.417553
vn -0.908062 0.056426 0.415018
vn -0.468153 0.856520 0.217270
vn -0.556438 0.783717 0.275979
vn -0.018152 0.998055 0.059647
vn -0.028832 0.997679 0.061685
vn 0.000762 0.998444 0.055767
vn 0.000999 0.998445 0.055732
vn -0.000720 0.998444 0.055765
vn -0.001037 0.998444 0.055751
vn 0.412455 0.895914 0.164982
vn 0.038107 0.997325 0.062373
vn 0.933150 0.157751 0.323027
vn 0.929172 -0.199510 0.311183
vn -0.005011 -0.998500 0.054530
vn -0.007404 -0.998500 0.054247
vn -0.001273 -0.998492 0.054887
vn 0.001477 -0.998489 0.054929
vn 0.005240 -0.998492 0.054652
vn 0.007669 -0.998489 0.054411
vn -0.933005 0.159678 0.322496
vn -0.929455 -0.198128 0.311221
vn -0.413205 0.895629 0.164651
vn -0.038538 0.997313 0.062297
vn 0.001180 0.998446 0.055719
vn -0.001377 0.998443 0.055761
vn 0.388207 0.910424 0.142908
vn 0.043370 0.997102 0.062497
vn 0.940457 0.186848 0.283953
vn 0.935379 -0.213998 0.281552
vn -0.005623 -0.998497 0.054515
vn -0.008340 -0.998495 0.054201
vn -0.001371 -0.998492 0.054886
vn 0.001755 -0.998489 0.054926
vn 0.006025 -0.998489 0.054629
vn 0.008764 -0.998484 0.054346
vn -0.940089 0.189108 0.283674
vn -0.935816 -0.211798 0.281761
vn -0.389112 0.910065 0.142738
vn -0.043996 0.997079 0.062428
vn 0.001271 0.998446 0.055720
vn -0.001639 0.998443 0.055759
s 1
g pCube1
usemtl initialShadingGroup
f 73/1/1 74/2/2 4/3/3 47/4/4
s 2
f 129/5/5 130/6/6 9/7/7 46/8/8
s 3
f 51/9/9 6/10/10 79/11/11 80/12/12
f 49/13/13 12/14/14 132/15/15 133/16/16
s 2
f 131/17/17 75/18/18 9/7/7 130/6/6
f 68/19/19 138/20/20 139/21/21 10/22/22
s 3
f 63/23/23 45/24/24 13/25/25 62/26/26
f 86/27/27 67/28/28 14/29/29 53/30/30
f 59/31/31 60/32/32 12/14/14 49/13/13
f 13/25/25 76/33/33 77/34/34 62/26/26
f 46/175/35 9/172/36 13/25/25 45/24/24
f 6/10/10 51/9/9 52/35/37 15/36/38
f 55/37/39 11/170/40 18/157/41 54/156/42
f 68/173/43 10/179/44 14/29/29 67/28/28
f 5/41/45 84/42/46 85/43/47 16/44/48
f 9/172/36 75/171/49 76/33/33 13/25/25
f 12/14/14 60/32/32 61/154/50 19/46/51
f 79/11/11 6/10/10 15/36/38 78/47/52
f 10/179/44 22/178/53 21/49/54 14/29/29
s 2
f 139/21/21 140/50/55 22/48/56 10/22/22
s 1
f 69/51/57 70/52/58 23/53/59 3/54/60
s 3
f 11/170/40 25/55/61 136/56/62 137/143/63
f 55/37/39 56/58/64 25/55/61 11/170/40
f 5/41/45 27/59/65 83/60/66 84/42/46
f 28/61/67 27/59/65 5/41/45 16/44/48
f 14/29/29 21/49/54 66/62/68 53/30/30
f 22/178/53 30/177/69 29/64/70 21/49/54
s 2
f 140/50/55 141/65/71 30/63/72 22/48/56
s 1
f 70/52/58 71/66/73 31/67/74 23/53/59
s 3
f 25/55/61 33/68/75 135/69/76 136/56/62
f 56/58/64 57/70/77 33/68/75 25/55/61
f 27/59/65 35/71/78 82/72/79 83/60/66
f 36/73/80 35/71/78 27/59/65 28/61/67
f 66/62/68 21/49/54 29/64/70 65/74/81
f 30/177/69 38/176/82 37/76/83 29/64/70
s 2
f 141/65/71 142/77/84 38/75/85 30/63/72
s 1
f 71/66/73 72/78/86 39/79/87 31/67/74
s 3
f 33/68/75 41/80/88 134/81/89 135/69/76
f 57/70/77 58/82/90 41/80/88 33/68/75
f 35/71/78 43/83/91 81/84/92 82/72/79
f 44/85/93 43/83/91 35/71/78 36/73/80
f 65/74/81 29/64/70 37/76/83 64/86/94
f 38/176/82 46/175/35 45/24/24 37/76/83
s 2
f 142/77/84 129/5/5 46/8/8 38/75/85
s 1
f 72/78/86 73/1/1 47/4/4 39/79/87
s 3
f 41/80/88 49/13/13 133/16/16 134/81/89
f 58/82/90 59/31/31 49/13/13 41/80/88
f 43/83/91 51/9/9 80/12/12 81/84/92
f 52/35/37 51/9/9 43/83/91 44/85/93
f 64/86/94 37/76/83 45/24/24 63/23/23
f 85/43/47 86/27/27 53/30/30 16/44/48
f 7/153/95 55/37/39 54/156/42 17/169/96
f 7/153/95 26/89/97 56/58/64 55/37/39
f 26/89/97 34/90/98 57/70/77 56/58/64
f 34/90/98 42/91/99 58/82/90 57/70/77
f 42/91/99 50/92/100 59/31/31 58/82/90
f 50/92/100 8/159/101 60/32/32 59/31/31
f 61/154/50 60/32/32 8/159/101 20/167/102
f 62/26/26 77/34/34 78/47/52 15/36/38
f 52/35/37 63/23/23 62/26/26 15/36/38
f 44/85/103 64/86/94 63/23/23 52/35/37
f 36/73/104 65/74/81 64/86/94 44/85/103
f 28/61/67 66/62/68 65/74/81 36/73/104
f 53/30/30 66/62/68 28/61/67 16/44/48
f 11/174/40 68/173/43 67/28/28 18/39/41
s 2
f 11/38/105 137/57/106 138/20/20 68/19/19
s 1
f 1/95/107 24/96/108 70/52/58 69/51/57
f 24/96/108 32/97/109 71/66/73 70/52/58
f 32/97/109 40/98/110 72/78/86 71/66/73
f 40/98/110 48/99/111 73/1/1 72/78/86
f 48/99/111 2/152/112 74/2/2 73/1/1
s 2
f 132/145/113 12/168/114 75/18/18 131/17/17
s 3
f 76/33/33 75/171/49 12/180/14 19/155/51
f 77/34/34 76/33/33 19/155/51 61/45/50
f 78/47/52 77/34/34 61/45/50 20/94/102
f 8/93/115 79/11/11 78/47/52 20/94/102
f 80/12/12 79/11/11 8/93/115 50/158/116
f 81/84/92 80/12/12 50/158/116 42/161/117
f 82/72/79 81/84/92 42/161/117 34/163/118
f 83/60/66 82/72/79 34/163/118 26/165/119
f 84/42/46 83/60/66 26/165/119 7/87/120
f 85/43/47 84/42/46 7/87/120 17/88/96
f 17/88/96 54/40/42 86/27/27 85/43/47
f 54/40/42 18/39/41 67/28/28 86/27/27
s 2
f 47/4/121 4/3/122 88/101/123 87/102/124
f 74/2/125 89/103/126 88/101/123 4/3/122
f 2/152/127 90/150/128 89/103/126 74/2/125
s 3
f 91/105/129 90/104/130 2/100/131 48/160/132
f 92/106/133 91/105/129 48/160/132 40/162/134
f 93/107/135 92/106/133 40/162/134 32/164/136
f 94/108/137 93/107/135 32/164/136 24/166/138
f 95/149/139 94/108/137 24/166/138 1/151/140
s 2
f 96/110/141 95/109/142 1/95/143 69/51/144
f 97/111/145 96/110/141 69/51/144 3/54/146
f 3/54/146 23/53/147 98/112/148 97/111/145
f 23/53/147 31/67/149 99/113/150 98/112/148
f 31/67/149 39/79/151 100/114/152 99/113/150
f 39/79/151 47/4/121 87/102/124 100/114/152
f 87/102/124 88/101/123 102/115/153 101/116/154
f 89/103/126 103/117/155 102/115/153 88/101/123
f 90/150/128 104/148/156 103/117/155 89/103/126
s 3
f 105/119/157 104/118/158 90/104/130 91/105/129
f 106/120/159 105/119/157 91/105/129 92/106/133
f 107/121/160 106/120/159 92/106/133 93/107/135
f 108/122/161 107/121/160 93/107/135 94/108/137
f 109/147/162 108/122/161 94/108/137 95/149/139
s 2
f 110/124/163 109/123/164 95/109/142 96/110/141
f 111/125/165 110/124/163 96/110/141 97/111/145
f 97/111/145 98/112/148 112/126/166 111/125/165
f 98/112/148 99/113/150 113/127/167 112/126/166
f 99/113/150 100/114/152 114/128/168 113/127/167
f 100/114/152 87/102/124 101/116/154 114/128/168
f 101/116/154 102/115/153 116/129/169 115/130/170
f 103/117/155 117/131/171 116/129/169 102/115/153
f 104/148/156 118/146/172 117/131/171 103/117/155
s 3
f 119/133/173 118/132/174 104/118/158 105/119/157
f 120/134/175 119/133/173 105/119/157 106/120/159
f 121/135/176 120/134/175 106/120/159 107/121/160
f 122/136/177 121/135/176 107/121/160 108/122/161
f 123/144/178 122/136/177 108/122/161 109/147/162
s 2
f 124/138/179 123/137/180 109/123/164 110/124/163
f 125/139/181 124/138/179 110/124/163 111/125/165
f 111/125/165 112/126/166 126/140/182 125/139/181
f 112/126/166 113/127/167 127/141/183 126/140/182
f 113/127/167 114/128/168 128/142/184 127/141/183
f 114/128/168 101/116/154 115/130/170 128/142/184
f 115/130/170 116/129/169 130/6/6 129/5/5
f 117/131/171 131/17/17 130/6/6 116/129/169
f 118/146/172 132/145/113 131/17/17 117/131/171
s 3
f 133/16/16 132/15/15 118/132/174 119/133/173
f 134/81/89 133/16/16 119/133/173 120/134/175
f 135/69/76 134/81/89 120/134/175 121/135/176
f 136/56/62 135/69/76 121/135/176 122/136/177
f 137/143/63 136/56/62 122/136/177 123/144/178
s 2
f 138/20/20 137/57/106 123/137/180 124/138/179
f 139/21/21 138/20/20 124/138/179 125/139/181
f 125/139/181 126/140/182 140/50/55 139/21/21
f 126/140/182 127/141/183 141/65/71 140/50/55
f 127/141/183 128/142/184 142/77/84 141/65/71
f 128/142/184 115/130/170 129/5/5 142/77/84
